<?xml version="1.0" standalone="no"?>
<!DOCTYPE svg PUBLIC "-//W3C//DTD SVG 20010904//EN"
 "http://www.w3.org/TR/2001/REC-SVG-20010904/DTD/svg10.dtd">
<svg version="1.0" xmlns="http://www.w3.org/2000/svg"
 width="500.000000pt" height="500.000000pt" viewBox="0 0 500.000000 500.000000"
 preserveAspectRatio="xMidYMid meet">
<metadata>
Created by potrace 1.16, written by Peter Selinger 2001-2019
</metadata>
<g transform="translate(0.000000,500.000000) scale(0.100000,-0.100000)"
fill="#000000" stroke="none">
<path d="M1186 2440 c-70 -21 -96 -75 -96 -197 0 -138 44 -195 150 -195 95 0
150 58 150 160 l0 52 -70 0 c-63 0 -70 -2 -70 -20 0 -18 7 -20 55 -20 l56 0
-7 -37 c-13 -75 -47 -103 -125 -103 -83 0 -123 91 -100 230 12 73 42 100 113
100 47 0 54 -3 88 -40 43 -46 50 -49 50 -17 0 44 -82 99 -145 96 -11 0 -33 -5
-49 -9z"/>
<path d="M3943 2443 c-37 -7 -80 -56 -93 -104 -7 -25 -10 -77 -8 -120 7 -122
52 -173 153 -171 93 1 145 56 145 153 l0 59 -71 0 c-62 0 -70 -2 -67 -17 2
-14 15 -19 57 -21 l53 -3 -5 -42 c-11 -81 -99 -122 -176 -82 -42 21 -53 60
-49 170 3 92 4 98 31 121 21 17 40 24 72 24 57 0 87 -14 109 -51 9 -16 21 -29
26 -29 34 0 6 66 -41 94 -29 17 -100 27 -136 19z"/>
<path d="M1661 2418 c-149 -381 -142 -361 -121 -365 11 -3 21 12 34 47 l18 51
100 -3 100 -3 18 -45 c10 -25 25 -46 34 -48 9 -2 16 0 16 5 0 10 -127 338
-141 365 -14 25 -48 23 -58 -4z m78 -136 l39 -102 -84 0 c-46 0 -84 2 -84 5 0
8 68 184 76 197 9 13 9 13 53 -100z"/>
<path d="M2012 2287 c3 -164 10 -188 63 -223 36 -23 130 -22 163 3 52 38 62
74 62 231 0 131 -1 143 -17 140 -16 -3 -19 -21 -23 -157 -5 -152 -5 -153 -33
-177 -42 -36 -109 -34 -148 5 l-29 29 0 151 c0 146 -1 151 -21 151 -20 0 -21
-3 -17 -153z"/>
<path d="M2490 2244 c0 -181 1 -195 18 -192 14 3 17 16 20 86 l3 82 53 0 54 0
48 -81 c44 -76 67 -100 81 -86 3 4 -14 39 -37 79 -24 40 -45 76 -47 80 -2 5 8
13 22 20 48 22 69 96 44 151 -20 44 -58 57 -163 57 l-96 0 0 -196z m188 155
c59 -20 66 -108 11 -136 -13 -7 -54 -13 -91 -13 l-68 0 0 80 0 80 59 0 c32 0
72 -5 89 -11z"/>
<path d="M3040 2437 c0 -2 -31 -84 -70 -183 -38 -98 -70 -185 -70 -191 0 -31
28 -9 47 37 l21 50 97 0 96 0 21 -50 c11 -27 27 -50 34 -50 8 0 14 5 14 10 0
6 -32 94 -71 195 -65 167 -74 185 -95 185 -13 0 -24 -1 -24 -3z m68 -147 l40
-105 -80 -3 c-44 -2 -82 -1 -84 1 -2 1 15 51 38 110 23 59 42 106 44 105 1 -2
20 -50 42 -108z"/>
<path d="M3390 2245 c0 -165 2 -195 15 -195 12 0 15 27 17 158 l3 157 104
-158 c71 -108 109 -157 120 -155 14 3 16 28 16 193 0 172 -2 190 -17 193 -16
3 -18 -11 -20 -154 l-3 -158 -102 157 c-59 90 -109 157 -118 157 -13 0 -15
-26 -15 -195z"/>
</g>
</svg>
